<svg width="923" height="166" viewBox="0 0 923 166" fill="none" xmlns="http://www.w3.org/2000/svg">
<path d="M905.5 46C915.165 46 923 38.165 923 28.5C923 18.835 915.165 11 905.5 11C895.835 11 888 18.835 888 28.5C888 38.165 895.835 46 905.5 46Z" fill="#F9C94E"/>
<path d="M785.5 166C791.299 166 796 161.299 796 155.5C796 149.701 791.299 145 785.5 145C779.701 145 775 149.701 775 155.5C775 161.299 779.701 166 785.5 166Z" fill="#4857EC"/>
<path d="M201.5 21C207.299 21 212 16.299 212 10.5C212 4.70101 207.299 0 201.5 0C195.701 0 191 4.70101 191 10.5C191 16.299 195.701 21 201.5 21Z" fill="#4A7EEE"/>
<path d="M5 108C7.76142 108 10 105.761 10 103C10 100.239 7.76142 98 5 98C2.23858 98 0 100.239 0 103C0 105.761 2.23858 108 5 108Z" fill="#F7E36D"/>
</svg>
