<svg width="193" height="50" viewBox="0 0 193 50" fill="none" xmlns="http://www.w3.org/2000/svg">
<path d="M99.3391 9.03354H103.312C103.254 5.53954 100.383 3.12724 96.0174 3.12724C91.7193 3.12724 88.5699 5.50125 88.5891 9.06226C88.5795 11.9532 90.6185 13.6093 93.9306 14.4038L96.0653 14.9399C98.2 15.4568 99.387 16.0694 99.3965 17.3904C99.387 18.8263 98.0277 19.8027 95.9217 19.8027C93.7678 19.8027 92.2171 18.8072 92.0831 16.8448H88.0721C88.1774 21.0855 91.212 23.2776 95.9695 23.2776C100.756 23.2776 103.57 20.9897 103.58 17.4C103.57 14.1358 101.11 12.4031 97.7022 11.6373L95.9408 11.2161C94.2369 10.8236 92.8106 10.1918 92.8393 8.78466C92.8393 7.52107 93.9593 6.59252 95.9887 6.59252C97.9702 6.59252 99.1859 7.49235 99.3391 9.03354ZM115.72 16.7395C115.73 18.7115 114.38 19.7453 112.915 19.7453C111.374 19.7453 110.379 18.6636 110.369 16.931V8.29645H106.291V17.6585C106.301 21.095 108.311 23.1915 111.269 23.1915C113.48 23.1915 115.069 22.0523 115.73 20.3292H115.883V23H119.798V8.29645H115.72V16.7395ZM123.06 23H127.138V14.6814C127.138 12.8722 128.459 11.6277 130.259 11.6277C130.823 11.6277 131.599 11.7235 131.982 11.8479V8.22944C131.618 8.14329 131.111 8.08585 130.699 8.08585C129.053 8.08585 127.703 9.04312 127.167 10.8619H127.014V8.29645H123.06V23ZM142.734 8.29645H139.815V7.31047C139.815 6.31492 140.217 5.73099 141.413 5.73099C141.901 5.73099 142.399 5.83629 142.725 5.94159L143.443 2.87835C142.935 2.72519 141.815 2.4763 140.561 2.4763C137.795 2.4763 135.737 4.03663 135.737 7.23389V8.29645H133.659V11.3597H135.737V23H139.815V11.3597H142.734V8.29645ZM148.892 23.2776C151.065 23.2776 152.472 22.3299 153.19 20.961H153.305V23H157.172V13.0828C157.172 9.57918 154.205 8.105 150.931 8.105C147.408 8.105 145.091 9.78978 144.527 12.4701L148.298 12.7764C148.576 11.8 149.447 11.0821 150.912 11.0821C152.3 11.0821 153.094 11.7809 153.094 12.987V13.0445C153.094 13.9922 152.089 14.1166 149.533 14.3655C146.623 14.6335 144.01 15.6099 144.01 18.8933C144.01 21.8034 146.087 23.2776 148.892 23.2776ZM150.06 20.4633C148.806 20.4633 147.906 19.8793 147.906 18.7593C147.906 17.6106 148.854 17.0458 150.289 16.8448C151.18 16.7204 152.635 16.5098 153.123 16.1843V17.7446C153.123 19.2858 151.85 20.4633 150.06 20.4633ZM166.979 23.2872C170.894 23.2872 173.355 20.9897 173.546 17.6106H169.698C169.459 19.1805 168.425 20.0612 167.027 20.0612C165.122 20.0612 163.887 18.4626 163.887 15.6482C163.887 12.8722 165.132 11.2831 167.027 11.2831C168.52 11.2831 169.478 12.2691 169.698 13.7337H173.546C173.374 10.3354 170.799 8.105 166.96 8.105C162.499 8.105 159.742 11.197 159.742 15.7057C159.742 20.1761 162.451 23.2872 166.979 23.2872ZM182.858 23.2872C186.495 23.2872 188.946 21.5162 189.52 18.788L185.749 18.5392C185.337 19.6592 184.284 20.2431 182.925 20.2431C180.886 20.2431 179.594 18.8933 179.594 16.7012V16.6916H189.607V15.5716C189.607 10.5747 186.582 8.105 182.695 8.105C178.368 8.105 175.564 11.1778 175.564 15.7152C175.564 20.3771 178.33 23.2872 182.858 23.2872ZM179.594 14.1645C179.68 12.4893 180.953 11.1491 182.762 11.1491C184.533 11.1491 185.758 12.4127 185.768 14.1645H179.594ZM94.7921 44C100.268 44 103.435 40.6041 103.435 34.9882C103.435 29.3986 100.268 26.029 94.9764 26.029H88.9744V44H94.7921ZM91.6858 41.6308V28.3982H94.8097C98.7408 28.3982 100.768 30.7499 100.768 34.9882C100.768 39.244 98.7408 41.6308 94.6429 41.6308H91.6858ZM106.597 44H109.22V30.5217H106.597V44ZM107.922 28.4421C108.825 28.4421 109.58 27.7401 109.58 26.8802C109.58 26.0202 108.825 25.3095 107.922 25.3095C107.009 25.3095 106.263 26.0202 106.263 26.8802C106.263 27.7401 107.009 28.4421 107.922 28.4421ZM118.401 49.3351C121.832 49.3351 124.482 47.7644 124.482 44.2983V30.5217H121.911V32.7067H121.718C121.253 31.8731 120.323 30.3462 117.813 30.3462C114.558 30.3462 112.162 32.9173 112.162 37.2082C112.162 41.5079 114.61 43.7982 117.796 43.7982C120.27 43.7982 121.227 42.403 121.7 41.543H121.867V44.193C121.867 46.3078 120.419 47.2204 118.427 47.2204C116.242 47.2204 115.391 46.1235 114.926 45.3513L112.671 46.2815C113.382 47.9312 115.181 49.3351 118.401 49.3351ZM118.375 41.622C116.032 41.622 114.812 39.8231 114.812 37.1731C114.812 34.5845 116.005 32.5751 118.375 32.5751C120.665 32.5751 121.893 34.4441 121.893 37.1731C121.893 39.9548 120.639 41.622 118.375 41.622ZM128.001 44H130.624V30.5217H128.001V44ZM129.326 28.4421C130.23 28.4421 130.984 27.7401 130.984 26.8802C130.984 26.0202 130.23 25.3095 129.326 25.3095C128.413 25.3095 127.667 26.0202 127.667 26.8802C127.667 27.7401 128.413 28.4421 129.326 28.4421ZM140.446 30.5217H137.682V27.2926H135.058V30.5217H133.084V32.6277H135.058V40.5866C135.049 43.0348 136.918 44.2194 138.989 44.1755C139.823 44.1667 140.384 44.0088 140.691 43.8947L140.218 41.7273C140.042 41.7624 139.717 41.8414 139.296 41.8414C138.445 41.8414 137.682 41.5606 137.682 40.0425V32.6277H140.446V30.5217ZM147.27 44.2983C149.499 44.2983 150.754 43.1664 151.254 42.1573H151.36V44H153.922V35.0496C153.922 31.1272 150.833 30.3462 148.692 30.3462C146.253 30.3462 144.006 31.329 143.129 33.786L145.594 34.3476C145.981 33.3911 146.963 32.4698 148.727 32.4698C150.421 32.4698 151.289 33.356 151.289 34.8829V34.9443C151.289 35.9008 150.307 35.8832 147.885 36.164C145.331 36.4624 142.716 37.1292 142.716 40.1917C142.716 42.8417 144.708 44.2983 147.27 44.2983ZM147.841 42.1924C146.358 42.1924 145.287 41.5255 145.287 40.2268C145.287 38.8228 146.533 38.3226 148.051 38.1208C148.903 38.0067 150.921 37.7786 151.298 37.4013V39.1387C151.298 40.7357 150.026 42.1924 147.841 42.1924ZM160.04 26.029H157.416V44H160.04V26.029Z" fill="#2563EB"/>
<rect x="8" y="7" width="37" height="37" rx="18.5" fill="#9AE6FF"/>
<path d="M25.9424 22.7841C23.1096 19.7334 19.1345 18 14.9714 18V18C6.70293 18 0 24.7172 0 32.9857V32.9857C0 41.27 6.71573 48 15 48H50L28 25L25.9424 22.7841Z" fill="#00C2FF"/>
<path d="M26 23.5C26 10.5213 36.5213 0 49.5 0V0C62.4787 0 73 10.5213 73 23.5V24C73 37.2548 62.2548 48 49 48H26V23.5Z" fill="#2563EB"/>
<path opacity="0.5" d="M25.9424 22.7841C23.1096 19.7334 19.1345 18 14.9714 18V18C6.70293 18 0 24.7172 0 32.9857V32.9857C0 41.27 6.71573 48 15 48H50L28 25L25.9424 22.7841Z" fill="#00C2FF"/>
</svg>
